<svg width="387" height="38" viewBox="0 0 387 38" fill="none" xmlns="http://www.w3.org/2000/svg">
<path d="M16.36 9.96L18.36 14.4L5.72 19.68L18.36 24.8L16.36 29.4L0.36 22.48V16.92L16.36 9.96ZM32.1022 0.359998L37.6222 1.6L28.2222 37.48L22.6622 36.2L32.1022 0.359998ZM70.6434 33H64.2034L63.7234 22.16C63.5901 19.5733 63.5234 17.2667 63.5234 15.24C63.5234 13.6933 63.5634 12.2267 63.6434 10.84L59.3634 30.08H53.1634L48.6034 10.84C48.7634 13.16 48.8434 15.3467 48.8434 17.4C48.8434 18.9467 48.8034 20.56 48.7234 22.24L48.2434 33H41.8434L43.9234 5.28H52.2034L56.3634 24.08L60.2434 5.28H68.5634L70.6434 33ZM89.1688 33L87.7288 27.04H79.6488L78.2488 33H71.4487L79.8088 5.28H87.7688L96.1288 33H89.1688ZM80.7688 22.28H86.6088L83.6888 10.04L80.7688 22.28ZM115.13 5.28L114.49 10.32H107.65V33H101.09V10.32H93.9303V5.28H115.13ZM132.652 33V21.12H124.332V33H117.772V5.28H124.332V16H132.652V5.28H139.212V33H132.652ZM161.413 5.28L160.733 9.96H150.973V16.6H159.493V21.2H150.973V28.28H161.413V33H144.413V5.28H161.413ZM186.707 23.8C186.707 25.6933 186.294 27.3867 185.467 28.88C184.667 30.3733 183.454 31.5467 181.827 32.4C180.201 33.2533 178.214 33.68 175.867 33.68C172.347 33.68 169.667 32.7867 167.827 31C165.987 29.2133 165.067 26.8133 165.067 23.8V5.28H171.627V23.52C171.627 25.3067 171.961 26.64 172.627 27.52C173.321 28.3733 174.401 28.8 175.867 28.8C177.361 28.8 178.441 28.3733 179.107 27.52C179.801 26.64 180.147 25.3067 180.147 23.52V5.28H186.707V23.8ZM200.208 4.6C202.288 4.6 204.088 4.89333 205.608 5.48C207.154 6.06667 208.554 6.96 209.807 8.16L206.768 11.72C204.874 10.1733 202.848 9.4 200.688 9.4C199.541 9.4 198.634 9.64 197.968 10.12C197.301 10.5733 196.968 11.24 196.968 12.12C196.968 12.7333 197.114 13.24 197.408 13.64C197.701 14.0133 198.221 14.3733 198.967 14.72C199.714 15.0667 200.834 15.48 202.328 15.96C205.154 16.8667 207.234 17.9867 208.568 19.32C209.901 20.6267 210.568 22.4933 210.568 24.92C210.568 26.6533 210.128 28.1867 209.247 29.52C208.368 30.8267 207.101 31.8533 205.448 32.6C203.794 33.32 201.834 33.68 199.568 33.68C197.301 33.68 195.288 33.32 193.528 32.6C191.794 31.88 190.301 30.92 189.048 29.72L192.368 26.08C193.434 26.9867 194.528 27.6667 195.648 28.12C196.794 28.5733 198.034 28.8 199.368 28.8C200.728 28.8 201.794 28.5067 202.568 27.92C203.368 27.3067 203.768 26.4667 203.768 25.4C203.768 24.7067 203.621 24.1333 203.328 23.68C203.034 23.2 202.528 22.7733 201.808 22.4C201.088 22.0267 200.048 21.6267 198.688 21.2C195.621 20.2667 193.434 19.12 192.128 17.76C190.848 16.4 190.208 14.68 190.208 12.6C190.208 11 190.634 9.6 191.488 8.4C192.341 7.17333 193.528 6.24 195.048 5.6C196.568 4.93333 198.288 4.6 200.208 4.6ZM230.23 5.28V27.8H241.03L240.35 33H223.67V5.28H230.23ZM253.698 4.6C257.645 4.6 260.712 5.86667 262.898 8.4C265.112 10.9333 266.218 14.5067 266.218 19.12C266.218 22.1333 265.712 24.7333 264.698 26.92C263.712 29.1067 262.272 30.7867 260.378 31.96C258.512 33.1067 256.285 33.68 253.698 33.68C251.112 33.68 248.885 33.1067 247.018 31.96C245.152 30.8133 243.712 29.16 242.698 27C241.712 24.8133 241.218 22.1867 241.218 19.12C241.218 16.1333 241.712 13.5467 242.698 11.36C243.712 9.17333 245.152 7.50667 247.018 6.36C248.885 5.18667 251.112 4.6 253.698 4.6ZM253.698 9.4C251.805 9.4 250.392 10.1733 249.458 11.72C248.552 13.24 248.098 15.7067 248.098 19.12C248.098 22.5333 248.565 25.0133 249.498 26.56C250.432 28.1067 251.832 28.88 253.698 28.88C255.618 28.88 257.032 28.12 257.938 26.6C258.872 25.0533 259.338 22.56 259.338 19.12C259.338 15.68 258.872 13.2 257.938 11.68C257.005 10.16 255.592 9.4 253.698 9.4ZM279.275 22.4H276.715V33H270.155V5.28H279.235C283.021 5.28 285.861 5.97333 287.755 7.36C289.675 8.74667 290.635 10.8667 290.635 13.72C290.635 15.5067 290.208 17 289.355 18.2C288.501 19.3733 287.155 20.3733 285.315 21.2L292.355 33H284.955L279.275 22.4ZM276.715 17.88H279.475C280.941 17.88 282.035 17.5467 282.755 16.88C283.501 16.2133 283.875 15.16 283.875 13.72C283.875 12.3867 283.475 11.4133 282.675 10.8C281.901 10.1867 280.701 9.88 279.075 9.88H276.715V17.88ZM303.962 22.4H301.402V33H294.842V5.28H303.922C307.709 5.28 310.549 5.97333 312.442 7.36C314.362 8.74667 315.322 10.8667 315.322 13.72C315.322 15.5067 314.896 17 314.042 18.2C313.189 19.3733 311.842 20.3733 310.002 21.2L317.042 33H309.642L303.962 22.4ZM301.402 17.88H304.162C305.629 17.88 306.722 17.5467 307.442 16.88C308.189 16.2133 308.562 15.16 308.562 13.72C308.562 12.3867 308.162 11.4133 307.362 10.8C306.589 10.1867 305.389 9.88 303.762 9.88H301.402V17.88ZM334.13 33L332.69 27.04H324.61L323.21 33H316.41L324.77 5.28H332.73L341.09 33H334.13ZM325.73 22.28H331.57L328.65 10.04L325.73 22.28ZM364.483 33H356.123L348.123 11.52C348.39 13.6267 348.59 15.4933 348.723 17.12C348.883 18.72 348.963 20.6267 348.963 22.84V33H343.123V5.28H351.283L359.483 26.8C358.897 23.1467 358.603 19.7067 358.603 16.48V5.28H364.483V33ZM370.407 9.96L386.407 16.92V22.48L370.407 29.4L368.407 24.8L381.047 19.68L368.407 14.4L370.407 9.96Z" fill="black"/>
</svg>
