<svg width="75" height="20" viewBox="0 0 75 20" fill="none" xmlns="http://www.w3.org/2000/svg">
<path d="M0 4C0 1.79086 1.79086 0 4 0H71C73.2091 0 75 1.79086 75 4V16C75 18.2091 73.2091 20 71 20H4C1.79086 20 0 18.2091 0 16V4Z" fill="#33A9DC"/>
<path d="M31.176 5.48C31.696 5.48 32.156 5.556 32.556 5.708C32.964 5.86 33.348 6.088 33.708 6.392L32.772 7.508C32.524 7.316 32.28 7.172 32.04 7.076C31.8 6.98 31.544 6.932 31.272 6.932C30.712 6.932 30.268 7.168 29.94 7.64C29.62 8.112 29.46 8.84 29.46 9.824C29.46 10.792 29.62 11.512 29.94 11.984C30.268 12.448 30.72 12.68 31.296 12.68C31.6 12.68 31.876 12.624 32.124 12.512C32.372 12.392 32.64 12.224 32.928 12.008L33.804 13.136C33.492 13.448 33.112 13.704 32.664 13.904C32.224 14.104 31.736 14.204 31.2 14.204C30.432 14.204 29.764 14.036 29.196 13.7C28.628 13.364 28.184 12.868 27.864 12.212C27.552 11.548 27.396 10.752 27.396 9.824C27.396 8.92 27.556 8.14 27.876 7.484C28.204 6.828 28.652 6.332 29.22 5.996C29.796 5.652 30.448 5.48 31.176 5.48Z" fill="white"/>
<path d="M37.2412 5.48C37.8652 5.48 38.4052 5.568 38.8612 5.744C39.3252 5.92 39.7452 6.188 40.1212 6.548L39.2092 7.616C38.6412 7.152 38.0332 6.92 37.3852 6.92C37.0412 6.92 36.7692 6.992 36.5692 7.136C36.3692 7.272 36.2692 7.472 36.2692 7.736C36.2692 7.92 36.3132 8.072 36.4012 8.192C36.4892 8.304 36.6452 8.412 36.8692 8.516C37.0932 8.62 37.4292 8.744 37.8772 8.888C38.7252 9.16 39.3492 9.496 39.7492 9.896C40.1492 10.288 40.3492 10.848 40.3492 11.576C40.3492 12.096 40.2172 12.556 39.9532 12.956C39.6892 13.348 39.3092 13.656 38.8132 13.88C38.3172 14.096 37.7292 14.204 37.0492 14.204C36.3692 14.204 35.7652 14.096 35.2372 13.88C34.7172 13.664 34.2692 13.376 33.8932 13.016L34.8892 11.924C35.2092 12.196 35.5372 12.4 35.8732 12.536C36.2172 12.672 36.5892 12.74 36.9892 12.74C37.3972 12.74 37.7172 12.652 37.9492 12.476C38.1892 12.292 38.3092 12.04 38.3092 11.72C38.3092 11.512 38.2652 11.34 38.1772 11.204C38.0892 11.06 37.9372 10.932 37.7212 10.82C37.5052 10.708 37.1932 10.588 36.7852 10.46C35.8652 10.18 35.2092 9.836 34.8172 9.428C34.4332 9.02 34.2412 8.504 34.2412 7.88C34.2412 7.4 34.3692 6.98 34.6252 6.62C34.8812 6.252 35.2372 5.972 35.6932 5.78C36.1492 5.58 36.6652 5.48 37.2412 5.48Z" fill="white"/>
<path d="M43.9794 5.48C44.6034 5.48 45.1434 5.568 45.5994 5.744C46.0634 5.92 46.4834 6.188 46.8594 6.548L45.9474 7.616C45.3794 7.152 44.7714 6.92 44.1234 6.92C43.7794 6.92 43.5074 6.992 43.3074 7.136C43.1074 7.272 43.0074 7.472 43.0074 7.736C43.0074 7.92 43.0514 8.072 43.1394 8.192C43.2274 8.304 43.3834 8.412 43.6074 8.516C43.8314 8.62 44.1674 8.744 44.6154 8.888C45.4634 9.16 46.0874 9.496 46.4874 9.896C46.8874 10.288 47.0874 10.848 47.0874 11.576C47.0874 12.096 46.9554 12.556 46.6914 12.956C46.4274 13.348 46.0474 13.656 45.5514 13.88C45.0554 14.096 44.4674 14.204 43.7874 14.204C43.1074 14.204 42.5034 14.096 41.9754 13.88C41.4554 13.664 41.0074 13.376 40.6314 13.016L41.6274 11.924C41.9474 12.196 42.2754 12.4 42.6114 12.536C42.9554 12.672 43.3274 12.74 43.7274 12.74C44.1354 12.74 44.4554 12.652 44.6874 12.476C44.9274 12.292 45.0474 12.04 45.0474 11.72C45.0474 11.512 45.0034 11.34 44.9154 11.204C44.8274 11.06 44.6754 10.932 44.4594 10.82C44.2434 10.708 43.9314 10.588 43.5234 10.46C42.6034 10.18 41.9474 9.836 41.5554 9.428C41.1714 9.02 40.9794 8.504 40.9794 7.88C40.9794 7.4 41.1074 6.98 41.3634 6.62C41.6194 6.252 41.9754 5.972 42.4314 5.78C42.8874 5.58 43.4034 5.48 43.9794 5.48Z" fill="white"/>
</svg>
