<svg width="25" height="25" viewBox="0 0 25 25" fill="none" xmlns="http://www.w3.org/2000/svg">
<path fill-rule="evenodd" clip-rule="evenodd" d="M12.5 0C5.59736 0 0 5.73784 0 12.8164C0 18.479 3.58167 23.2831 8.54829 24.9779C9.17293 25.0965 9.40236 24.6997 9.40236 24.3613C9.40236 24.0558 9.39088 23.046 9.38545 21.9751C5.90792 22.7505 5.17412 20.4629 5.17412 20.4629C4.60546 18.9816 3.78627 18.5876 3.78627 18.5876C2.65203 17.7921 3.87176 17.8085 3.87176 17.8085C5.12684 17.8989 5.78788 19.1295 5.78788 19.1295C6.90274 21.0887 8.71206 20.5222 9.42547 20.1947C9.53768 19.3665 9.86148 18.8009 10.2191 18.4809C7.44263 18.1569 4.52387 17.0578 4.52387 12.1469C4.52387 10.7478 5.01223 9.60444 5.81192 8.70687C5.68215 8.38393 5.25424 7.08048 5.93304 5.31501C5.93304 5.31501 6.98275 4.97075 9.37126 6.62893C10.3684 6.34491 11.4378 6.2025 12.5001 6.19756C13.5623 6.2025 14.6325 6.34491 15.6314 6.62893C18.0173 4.97075 19.0655 5.31501 19.0655 5.31501C19.7459 7.08048 19.318 8.38393 19.1882 8.70687C19.9897 9.60444 20.4746 10.7478 20.4746 12.1469C20.4746 17.0696 17.5504 18.1534 14.7669 18.4707C15.2152 18.8685 15.6146 19.6484 15.6146 20.8441C15.6146 22.5589 15.6003 23.9391 15.6003 24.3613C15.6003 24.7024 15.8252 25.1021 16.4588 24.9763C21.4229 23.2797 25 18.4772 25 12.8164C25 5.73784 19.4034 0 12.5 0Z" fill="black"/>
<path d="M4.73445 18.4015C4.70694 18.4653 4.60912 18.4844 4.52015 18.4407C4.42941 18.3988 4.37868 18.312 4.40796 18.2481C4.43486 18.1826 4.53265 18.1643 4.62324 18.2081C4.71404 18.25 4.76581 18.3376 4.73445 18.4015Z" fill="black"/>
<path d="M5.24081 18.9806C5.18123 19.0371 5.06451 19.0108 4.98544 18.9213C4.90358 18.8319 4.88846 18.7123 4.94895 18.655C5.01041 18.5984 5.12344 18.6248 5.20525 18.7142C5.28716 18.8046 5.30308 18.9232 5.24081 18.9806Z" fill="black"/>
<path d="M5.73368 19.7187C5.65704 19.7733 5.53172 19.7221 5.45427 19.6081C5.37764 19.4941 5.37766 19.3574 5.45607 19.3026C5.53352 19.2479 5.65706 19.2972 5.73547 19.4102C5.8119 19.5261 5.81188 19.6629 5.73368 19.7187Z" fill="black"/>
<path d="M6.40883 20.4318C6.34026 20.5093 6.19429 20.4884 6.08761 20.3827C5.97824 20.2794 5.94791 20.1328 6.01642 20.0552C6.086 19.9777 6.23276 19.9994 6.34025 20.1043C6.4488 20.2075 6.48176 20.3551 6.40883 20.4318Z" fill="black"/>
<path d="M7.34029 20.8459C7.31 20.9462 7.16954 20.9918 7.02799 20.9491C6.8865 20.9052 6.79415 20.7877 6.82262 20.6863C6.85191 20.5852 6.99316 20.5377 7.13567 20.5833C7.27701 20.627 7.36958 20.7437 7.34029 20.8459Z" fill="black"/>
<path d="M8.36336 20.9226C8.36676 21.0283 8.24669 21.116 8.09814 21.1179C7.94873 21.1214 7.82762 21.0358 7.82605 20.9318C7.82605 20.825 7.94341 20.7383 8.09288 20.7357C8.24142 20.7328 8.36336 20.8177 8.36336 20.9226Z" fill="black"/>
<path d="M9.31527 20.7566C9.33304 20.8596 9.22967 20.9655 9.08208 20.9937C8.93699 21.0211 8.80279 20.9572 8.78422 20.855C8.76625 20.7494 8.8713 20.6434 9.01629 20.6161C9.16408 20.5897 9.29644 20.6517 9.31527 20.7566Z" fill="black"/>
</svg>
