<svg width="75" height="20" viewBox="0 0 75 20" fill="none" xmlns="http://www.w3.org/2000/svg">
<path d="M0 4C0 1.79086 1.79086 0 4 0H71C73.2091 0 75 1.79086 75 4V16C75 18.2091 73.2091 20 71 20H4C1.79086 20 0 18.2091 0 16V4Z" fill="#F0652A"/>
<path d="M27.244 14V10.436H24.748V14H22.78V5.684H24.748V8.9H27.244V5.684H29.212V14H27.244Z" fill="white"/>
<path d="M36.4602 5.684L36.2682 7.196H34.2162V14H32.2482V7.196H30.1002V5.684H36.4602Z" fill="white"/>
<path d="M45.2743 14H43.3423L43.1983 10.748C43.1583 9.972 43.1383 9.28 43.1383 8.672C43.1383 8.208 43.1503 7.768 43.1743 7.352L41.8903 13.124H40.0303L38.6623 7.352C38.7103 8.048 38.7343 8.704 38.7343 9.32C38.7343 9.784 38.7223 10.268 38.6983 10.772L38.5543 14H36.6343L37.2583 5.684H39.7423L40.9903 11.324L42.1543 5.684H44.6503L45.2743 14Z" fill="white"/>
<path d="M48.4199 5.684V12.44H51.6599L51.4559 14H46.4519V5.684H48.4199Z" fill="white"/>
</svg>
