<svg viewBox="0 0 26 26" xml:space="preserve" xmlns="http://www.w3.org/2000/svg"><path d="M24.497 19.236c-.403-.658-1.03-1.424-1.765-2.159-.532-.532-2.359-2.267-3.534-2.267-.377 0-.616.16-.75.294l-1.564 1.564c-.027.026-.11.057-.262.057-.868 0-2.709-.961-4.548-2.8-2.452-2.452-3.042-4.509-2.742-4.809l1.563-1.563c.134-.135.295-.374.295-.75.001-1.176-1.735-3.003-2.267-3.535C8.392 2.735 6.565 1 5.389 1c-.376 0-.616.16-.75.295L1.51 4.423C.587 5.346.924 7.15 2.513 9.789c1.379 2.29 3.561 4.973 6.143 7.555 4.58 4.58 9.218 7.657 11.54 7.656.578 0 1.042-.172 1.381-.51l3.128-3.129c.677-.676.01-1.766-.208-2.125zm-3.98 4.193c-.036.034-.137.071-.32.071-1.582 0-5.792-2.53-10.48-7.217-2.5-2.499-4.6-5.08-5.92-7.268C2.313 6.55 2.453 5.603 2.572 5.483L5.516 2.54c.383.148 1.273.715 2.346 1.79s1.64 1.962 1.79 2.346l-1.38 1.38c-1.439 1.44.413 4.601 2.742 6.931 1.998 1.998 4.147 3.239 5.608 3.239.683 0 1.096-.27 1.322-.496l1.381-1.38c.384.148 1.273.715 2.347 1.789 1.073 1.073 1.64 1.963 1.789 2.346l-2.944 2.945z" fill="#ffffff" class="fill-1d1d1b"></path></svg>