<svg width="75" height="20" viewBox="0 0 75 20" fill="none" xmlns="http://www.w3.org/2000/svg">
<path d="M0 4C0 1.79086 1.79086 0 4 0H71C73.2091 0 75 1.79086 75 4V16C75 18.2091 73.2091 20 71 20H4C1.79086 20 0 18.2091 0 16V4Z" fill="#F0DB4F"/>
<path d="M12.072 12.74C12.072 13.404 11.952 13.952 11.712 14.384C11.48 14.816 11.168 15.152 10.776 15.392C10.392 15.64 9.932 15.852 9.396 16.028L8.868 14.636C9.22 14.5 9.484 14.344 9.66 14.168C9.836 13.992 9.952 13.788 10.008 13.556C10.072 13.324 10.104 13.028 10.104 12.668V5.684H12.072V12.74Z" fill="white"/>
<path d="M18.6166 12.152C18.6166 12.392 18.6486 12.568 18.7126 12.68C18.7846 12.792 18.8966 12.876 19.0486 12.932L18.6526 14.168C18.2606 14.136 17.9406 14.052 17.6926 13.916C17.4446 13.772 17.2526 13.548 17.1166 13.244C16.7006 13.884 16.0606 14.204 15.1966 14.204C14.5646 14.204 14.0606 14.02 13.6846 13.652C13.3086 13.284 13.1206 12.804 13.1206 12.212C13.1206 11.516 13.3766 10.984 13.8886 10.616C14.4006 10.248 15.1406 10.064 16.1086 10.064H16.7566V9.788C16.7566 9.412 16.6766 9.156 16.5166 9.02C16.3566 8.876 16.0766 8.804 15.6766 8.804C15.4686 8.804 15.2166 8.836 14.9206 8.9C14.6246 8.956 14.3206 9.036 14.0086 9.14L13.5766 7.892C13.9766 7.74 14.3846 7.624 14.8006 7.544C15.2246 7.464 15.6166 7.424 15.9766 7.424C16.8886 7.424 17.5566 7.612 17.9806 7.988C18.4046 8.364 18.6166 8.928 18.6166 9.68V12.152ZM15.7486 12.848C16.1806 12.848 16.5166 12.644 16.7566 12.236V11.108H16.2886C15.8566 11.108 15.5326 11.184 15.3166 11.336C15.1086 11.488 15.0046 11.724 15.0046 12.044C15.0046 12.3 15.0686 12.5 15.1966 12.644C15.3326 12.78 15.5166 12.848 15.7486 12.848Z" fill="white"/>
<path d="M25.435 7.628L23.431 14H21.187L19.135 7.628H21.199L22.327 12.56L23.503 7.628H25.435Z" fill="white"/>
<path d="M30.8978 12.152C30.8978 12.392 30.9298 12.568 30.9938 12.68C31.0658 12.792 31.1778 12.876 31.3298 12.932L30.9338 14.168C30.5418 14.136 30.2218 14.052 29.9738 13.916C29.7258 13.772 29.5338 13.548 29.3978 13.244C28.9818 13.884 28.3418 14.204 27.4778 14.204C26.8458 14.204 26.3418 14.02 25.9658 13.652C25.5898 13.284 25.4018 12.804 25.4018 12.212C25.4018 11.516 25.6578 10.984 26.1698 10.616C26.6818 10.248 27.4218 10.064 28.3898 10.064H29.0378V9.788C29.0378 9.412 28.9578 9.156 28.7978 9.02C28.6378 8.876 28.3578 8.804 27.9578 8.804C27.7498 8.804 27.4978 8.836 27.2018 8.9C26.9058 8.956 26.6018 9.036 26.2898 9.14L25.8578 7.892C26.2578 7.74 26.6658 7.624 27.0818 7.544C27.5058 7.464 27.8978 7.424 28.2578 7.424C29.1698 7.424 29.8378 7.612 30.2618 7.988C30.6858 8.364 30.8978 8.928 30.8978 9.68V12.152ZM28.0298 12.848C28.4618 12.848 28.7978 12.644 29.0378 12.236V11.108H28.5698C28.1378 11.108 27.8138 11.184 27.5978 11.336C27.3898 11.488 27.2858 11.724 27.2858 12.044C27.2858 12.3 27.3498 12.5 27.4778 12.644C27.6138 12.78 27.7978 12.848 28.0298 12.848Z" fill="white"/>
<path d="M35.1201 5.48C35.7441 5.48 36.2841 5.568 36.7401 5.744C37.2041 5.92 37.6241 6.188 38.0001 6.548L37.0881 7.616C36.5201 7.152 35.9121 6.92 35.2641 6.92C34.9201 6.92 34.6481 6.992 34.4481 7.136C34.2481 7.272 34.1481 7.472 34.1481 7.736C34.1481 7.92 34.1921 8.072 34.2801 8.192C34.3681 8.304 34.5241 8.412 34.7481 8.516C34.9721 8.62 35.3081 8.744 35.7561 8.888C36.6041 9.16 37.2281 9.496 37.6281 9.896C38.0281 10.288 38.2281 10.848 38.2281 11.576C38.2281 12.096 38.0961 12.556 37.8321 12.956C37.5681 13.348 37.1881 13.656 36.6921 13.88C36.1961 14.096 35.6081 14.204 34.9281 14.204C34.2481 14.204 33.6441 14.096 33.1161 13.88C32.5961 13.664 32.1481 13.376 31.7721 13.016L32.7681 11.924C33.0881 12.196 33.4161 12.4 33.7521 12.536C34.0961 12.672 34.4681 12.74 34.8681 12.74C35.2761 12.74 35.5961 12.652 35.8281 12.476C36.0681 12.292 36.1881 12.04 36.1881 11.72C36.1881 11.512 36.1441 11.34 36.0561 11.204C35.9681 11.06 35.8161 10.932 35.6001 10.82C35.3841 10.708 35.0721 10.588 34.6641 10.46C33.7441 10.18 33.0881 9.836 32.6961 9.428C32.3121 9.02 32.1201 8.504 32.1201 7.88C32.1201 7.4 32.2481 6.98 32.5041 6.62C32.7601 6.252 33.1161 5.972 33.5721 5.78C34.0281 5.58 34.5441 5.48 35.1201 5.48Z" fill="white"/>
<path d="M42.0353 7.424C42.4753 7.424 42.8713 7.488 43.2233 7.616C43.5753 7.744 43.9072 7.94 44.2192 8.204L43.4033 9.332C43.0033 9.028 42.5992 8.876 42.1912 8.876C41.7672 8.876 41.4473 9.032 41.2313 9.344C41.0153 9.656 40.9072 10.16 40.9072 10.856C40.9072 11.528 41.0153 12.004 41.2313 12.284C41.4473 12.564 41.7593 12.704 42.1673 12.704C42.3833 12.704 42.5792 12.672 42.7552 12.608C42.9312 12.536 43.1433 12.424 43.3913 12.272L44.2192 13.448C43.5872 13.952 42.8713 14.204 42.0713 14.204C41.4233 14.204 40.8633 14.068 40.3913 13.796C39.9193 13.516 39.5553 13.128 39.2993 12.632C39.0433 12.128 38.9152 11.54 38.9152 10.868C38.9152 10.196 39.0433 9.6 39.2993 9.08C39.5553 8.56 39.9193 8.156 40.3913 7.868C40.8633 7.572 41.4113 7.424 42.0353 7.424Z" fill="white"/>
<path d="M48.4734 7.448C48.7054 7.448 48.9174 7.476 49.1094 7.532L48.8094 9.368C48.5694 9.312 48.3774 9.284 48.2334 9.284C47.8574 9.284 47.5694 9.416 47.3694 9.68C47.1774 9.936 47.0254 10.324 46.9134 10.844V14H45.0174V7.628H46.6734L46.8294 8.864C46.9734 8.424 47.1894 8.08 47.4774 7.832C47.7734 7.576 48.1054 7.448 48.4734 7.448Z" fill="white"/>
<path d="M51.7298 7.628V14H49.8338V7.628H51.7298ZM50.7698 4.268C51.0978 4.268 51.3658 4.372 51.5738 4.58C51.7898 4.78 51.8978 5.036 51.8978 5.348C51.8978 5.66 51.7898 5.92 51.5738 6.128C51.3658 6.328 51.0978 6.428 50.7698 6.428C50.4418 6.428 50.1738 6.328 49.9658 6.128C49.7578 5.92 49.6538 5.66 49.6538 5.348C49.6538 5.036 49.7578 4.78 49.9658 4.58C50.1738 4.372 50.4418 4.268 50.7698 4.268Z" fill="white"/>
<path d="M56.8206 7.424C57.6206 7.424 58.2166 7.72 58.6086 8.312C59.0006 8.904 59.1966 9.732 59.1966 10.796C59.1966 11.452 59.0926 12.04 58.8846 12.56C58.6846 13.072 58.3926 13.476 58.0086 13.772C57.6246 14.06 57.1766 14.204 56.6646 14.204C56.0246 14.204 55.5086 13.984 55.1166 13.544V16.46L53.2206 16.664V7.628H54.8886L54.9846 8.336C55.2326 8.024 55.5166 7.796 55.8366 7.652C56.1566 7.5 56.4846 7.424 56.8206 7.424ZM56.0886 12.812C56.8486 12.812 57.2286 12.148 57.2286 10.82C57.2286 10.068 57.1446 9.548 56.9766 9.26C56.8086 8.964 56.5566 8.816 56.2206 8.816C56.0046 8.816 55.8006 8.88 55.6086 9.008C55.4246 9.136 55.2606 9.32 55.1166 9.56V12.248C55.3726 12.624 55.6966 12.812 56.0886 12.812Z" fill="white"/>
<path d="M64.3767 13.7C64.1447 13.86 63.8727 13.984 63.5607 14.072C63.2567 14.16 62.9527 14.204 62.6487 14.204C61.2567 14.196 60.5607 13.428 60.5607 11.9V8.948H59.6607V7.628H60.5607V6.248L62.4567 6.032V7.628H63.9207L63.7167 8.948H62.4567V11.876C62.4567 12.172 62.5047 12.384 62.6007 12.512C62.6967 12.64 62.8487 12.704 63.0567 12.704C63.2727 12.704 63.5007 12.636 63.7407 12.5L64.3767 13.7Z" fill="white"/>
</svg>
